HIERARCHY
ROOT Hips
{
	OFFSET -0.179506 -22.333345 2.821913
	CHANNELS 6 Xposition Yposition Zposition Zrotation Yrotation Xrotation 
	JOINT LeftUpLeg
	{
		OFFSET 6.951974 -9.140623 -0.681533
		CHANNELS 3 Zrotation Yrotation Xrotation
		JOINT LeftLeg
		{
			OFFSET 3.427654 -37.519855 -0.449580
			CHANNELS 3 Zrotation Yrotation Xrotation
			JOINT LeftFoot
			{
				OFFSET -1.359570 -39.796059 -4.369333
				CHANNELS 3 Zrotation Yrotation Xrotation
				JOINT LeftToe
				{
					OFFSET 2.635814 -5.579078 11.928840
					CHANNELS 3 Zrotation Yrotation Xrotation
					End Site
					{
						OFFSET 0.000000 0.000000 0.000000
					}
				}
			}
		}
	}
	JOINT RightUpLeg
	{
		OFFSET -6.767048 -9.052170 -0.431982
		CHANNELS 3 Zrotation Yrotation Xrotation
		JOINT RightLeg
		{
			OFFSET -3.829005 -38.256897 -0.885003
			CHANNELS 3 Zrotation Yrotation Xrotation
			JOINT RightFoot
			{
				OFFSET 1.577377 -39.841461 -4.231180
				CHANNELS 3 Zrotation Yrotation Xrotation
				JOINT RightToe
				{
					OFFSET -2.537174 -4.814398 12.334795
					CHANNELS 3 Zrotation Yrotation Xrotation
					End Site
					{
						OFFSET 0.000000 0.000000 0.000000
					}
				}
			}
		}
	}
	JOINT Spine
	{
		OFFSET -0.253288 10.896323 -2.669631
		CHANNELS 3 Zrotation Yrotation Xrotation
		JOINT Spine1
		{
			OFFSET 0.548704 13.518043 0.109247
			CHANNELS 3 Zrotation Yrotation Xrotation
			JOINT Spine2
			{
				OFFSET 0.145701 5.292222 2.542457
				CHANNELS 3 Zrotation Yrotation Xrotation
				JOINT Neck
				{
					OFFSET -0.277840 21.387037 -4.285703
					CHANNELS 3 Zrotation Yrotation Xrotation
					JOINT Head
					{
						OFFSET 0.515184 6.496960 5.134897
						CHANNELS 3 Zrotation Yrotation Xrotation
						End Site
						{
							OFFSET 0.000000 0.000000 0.000000
						}
					}
				}
				JOINT LeftShoulder
				{
					OFFSET 7.884473 12.174932 -3.408961
					CHANNELS 3 Zrotation Yrotation Xrotation
					JOINT LeftArm
					{
						OFFSET 9.097692 3.046888 -0.886815
						CHANNELS 3 Zrotation Yrotation Xrotation
						JOINT LeftForeArm
						{
							OFFSET 25.961220 -1.277207 -2.745643
							CHANNELS 3 Zrotation Yrotation Xrotation
							JOINT LeftHand
							{
								OFFSET 24.923361 0.898606 -0.117091
								CHANNELS 3 Zrotation Yrotation Xrotation
								End Site
								{
									OFFSET 0.000000 0.000000 0.000000
								}
							}
						}
					}
				}
				JOINT RightShoulder
				{
					OFFSET -8.175920 11.883285 -3.861528
					CHANNELS 3 Zrotation Yrotation Xrotation
					JOINT RightArm
					{
						OFFSET -9.601238 3.255117 -0.914307
						CHANNELS 3 Zrotation Yrotation Xrotation
						JOINT RightForeArm
						{
							OFFSET -25.374195 -1.332924 -2.140099
							CHANNELS 3 Zrotation Yrotation Xrotation
							JOINT RightHand
							{
								OFFSET -25.529810 0.777228 -0.555919
								CHANNELS 3 Zrotation Yrotation Xrotation
								End Site
								{
									OFFSET 0.000000 0.000000 0.000000
								}
							}
						}
					}
				}
			}
		}
	}
}
MOTION
Frames: 7
Frame Time: 0.033333
64.742691 -97.988892 88.630013 -132.474540 1.345160 97.624979 -3.023275 -9.295011 -17.728313 -5.572420 -4.387705 36.045877 5.454972 20.247421 -33.279684 nan nan nan -4.653437 5.236079 -31.273571 1.658006 -8.061435 54.601725 0.106748 -7.156808 -17.945455 nan nan nan 0.011130 1.334375 21.318399 4.837389 -2.695629 14.529740 3.410821 -3.527333 -4.800335 -2.880677 2.460881 -8.477335 2.801582 1.035401 -18.105963 -25.150770 -6.750412 -1.014711 -65.453031 -7.357394 19.908328 22.367397 -41.900481 -9.214138 -1.636490 -26.856095 -6.645048 26.182740 9.407111 -2.765078 54.213700 -2.546430 13.836225 -16.867946 31.912132 -9.032834 -0.388311 22.915048 -15.595437 
64.278648 -97.653419 88.648499 -132.209293 1.440771 97.515039 -3.056913 -9.281552 -16.956807 -5.542394 -4.609561 35.567777 5.476892 20.163590 -33.450279 nan nan nan -4.958617 5.451455 -32.417625 1.685588 -8.700157 56.817424 0.326090 -7.400257 -16.493766 nan nan nan -0.012915 0.770046 21.569093 4.969031 -2.641607 14.290192 3.374647 -3.522279 -4.700734 -2.944680 2.736124 -8.426296 2.704516 1.007617 -18.018975 -25.033183 -6.732021 -1.229628 -65.559001 -7.413659 20.103443 22.805012 -42.658042 -9.155642 0.016697 -27.679294 -6.870072 26.313158 9.270824 -2.710869 54.196428 -3.010409 13.803930 -16.612360 31.705238 -8.800672 -0.749557 23.308106 -15.788802 
63.797962 -97.247757 88.686417 -131.931246 1.647674 97.435988 -2.920734 -9.075141 -16.144341 -5.644943 -5.026047 35.089790 5.515531 20.237197 -33.514496 nan nan nan -5.028794 5.648516 -33.489700 1.785401 -9.164264 58.747490 0.323444 -7.612399 -15.822992 nan nan nan -0.008370 0.307444 21.703401 5.192150 -2.595069 14.177441 3.428134 -3.581167 -4.673903 -2.991424 3.032099 -8.348629 2.531795 0.957896 -17.933347 -24.870251 -6.699036 -1.297431 -65.818504 -7.676094 20.195829 23.251004 -43.379522 -9.583553 -0.420608 -27.399598 -6.654504 26.302435 9.100442 -2.640421 54.332835 -3.449598 13.794209 -16.584492 31.461656 -8.780351 -0.483365 23.195706 -16.203674 
63.284428 -96.801155 88.768532 -131.578614 1.825464 97.357422 -2.839058 -8.821402 -15.156795 -5.688511 -5.602650 34.362919 5.462174 20.423798 -33.532094 nan nan nan -5.063737 5.689051 -34.407184 1.938104 -9.529638 60.319924 0.191196 -7.660130 -15.858890 nan nan nan 0.071188 -0.034160 21.656972 5.420752 -2.613180 14.406755 3.476655 -3.723252 -4.822671 -3.021223 3.264620 -8.340612 2.432699 0.959939 -17.740080 -24.739614 -6.680118 -1.190059 -66.038281 -8.194935 20.216305 23.341431 -44.194728 -10.468278 -2.570605 -26.386009 -6.762694 26.302462 8.902979 -2.549317 54.508829 -3.830317 13.785496 -16.628069 31.084099 -9.200228 0.289852 22.846366 -16.581284 
62.742821 -96.365990 88.903831 -131.220496 1.908554 97.335666 -2.868352 -8.660688 -14.094401 -5.584506 -6.064105 33.332428 5.400647 20.467879 -33.624089 nan nan nan -5.175484 5.646871 -35.250338 2.163347 -9.833288 61.434223 0.143764 -7.436151 -16.216217 nan nan nan 0.145718 -0.434417 21.491493 5.590013 -2.651547 14.654938 3.472879 -3.821692 -4.933026 -3.184819 3.400368 -8.284761 2.458530 1.060504 -17.667248 -24.726937 -6.768581 -1.127101 -65.997359 -8.633412 20.396264 23.271949 -44.976058 -11.236386 -3.495078 -26.377032 -7.534581 26.423012 8.681308 -2.616863 54.578632 -4.335536 13.998197 -16.677643 30.679977 -9.469654 0.932901 22.559009 -17.251459 
62.196144 -95.938675 89.092590 -130.838898 2.038802 97.395733 -2.795911 -8.442703 -13.135996 -5.470463 -6.480459 32.315744 5.238494 20.271063 -33.664071 nan nan nan -5.250915 5.494728 -36.048813 2.281384 -10.223706 62.039939 0.162870 -7.007308 -16.202340 nan nan nan 0.293299 -0.926642 21.234301 5.714282 -2.713948 14.829277 3.482671 -3.896120 -4.930326 -3.331550 3.552908 -8.169672 2.386835 1.103312 -17.551256 -24.797230 -6.966127 -1.143063 -65.904609 -8.962793 20.529943 23.856049 -45.625658 -11.636905 -3.166929 -26.762617 -7.311399 26.544320 8.549967 -2.563442 54.563362 -4.739859 13.995466 -16.518230 30.336240 -9.393079 1.251295 22.337038 -17.523223 
61.642452 -95.479172 89.302879 -130.446754 2.224173 97.581863 -2.627139 -8.186734 -12.259032 -5.285059 -6.970136 31.261014 5.096431 19.978649 -33.552839 nan nan nan -5.351700 5.294226 -36.866262 2.353441 -10.755597 62.223312 0.172173 -6.393020 -15.876588 nan nan nan 0.507043 -1.425445 20.815524 5.861481 -2.747487 15.029272 3.522602 -4.009479 -4.968055 -3.513674 3.850564 -7.985604 2.265534 0.920841 -17.462013 -24.866174 -7.127287 -1.171898 -65.871978 -9.338302 20.522576 24.906254 -46.055658 -11.825095 -3.537741 -26.974013 -5.902469 26.533729 8.460145 -2.451879 54.647942 -5.180864 13.728131 -16.259996 30.047030 -9.468185 1.705071 22.108501 -17.596137 
